<svg width="48" height="46" viewBox="0 0 48 46" fill="none" xmlns="http://www.w3.org/2000/svg">
<path d="M44.8287 19.6204C46.1937 21.1314 47.8354 23.6309 47.8354 25.6933C47.8354 28.5305 46.7826 30.8697 44.6769 32.7108C42.3518 34.9691 39.958 34.9691 36.8373 34.9691C35.3981 34.9691 33.959 35.2538 32.5198 34.8161C31.0807 34.3634 29.8384 33.8201 28.7932 33.1862L27.8161 34.8388H25.9982L25.6801 23.837H27.5207C27.8994 25.1953 28.9566 26.3407 29.4565 27.4424C31.7224 33.7366 33.4007 33.1862 37.2613 33.1862C40.6421 33.1862 42.3518 31.5039 42.3518 27.8665C42.3518 25.5453 41.0184 22.9107 39.0187 21.2956C37.0191 19.6806 31.1716 18.2883 28.5923 14.9517C26.9485 12.7683 26.1836 8.38132 27.3389 5.84594C28.9017 2.41618 32.6661 0 36.3374 0C37.8219 0 39.1475 0.226373 40.314 0.67912C41.4956 1.13187 42.5711 1.66007 43.5407 2.26373L44.4723 0.724394H46.2902L46.472 11.3866H44.6314C44.2981 10.1642 43.9194 8.99456 43.4952 7.87779C43.0862 6.76101 42.5484 5.74988 41.8819 4.84439C41.2305 3.96908 40.4351 3.27487 39.4959 2.76175C38.5567 2.23355 37.4054 1.96945 36.0419 1.96945C34.6028 1.96945 33.3757 2.42974 32.3607 3.35032C31.3458 4.27091 30.8383 5.39523 30.8383 6.72328C30.8383 8.11171 31.164 9.26621 31.8154 10.1868C35.0113 14.6293 41.0587 15.5899 44.8287 19.6204Z" fill="#20A8F4"/>
<path d="M40.786 34.7231C40.4853 34.7607 40.078 34.8234 39.5642 34.9111C39.063 34.9863 38.6557 35.099 38.3425 35.2494C37.9665 35.4373 37.6971 35.7067 37.5342 36.0576C37.3838 36.3959 37.3087 36.7968 37.3087 37.2604V39.3279C37.3087 40.8315 37.3149 41.8464 37.3275 42.3727C37.3525 42.8989 37.3776 43.3312 37.4026 43.6695C35.736 44.4213 34.0756 44.9977 32.4216 45.3986C30.7675 45.7996 29.1447 46.0001 27.5532 46.0001C25.849 46.0001 24.2075 45.6806 22.6285 45.0415C21.0496 44.4025 19.6712 43.4941 18.4933 42.3163C17.3029 41.1259 16.3568 39.6787 15.655 37.9747C14.9533 36.2706 14.6024 34.366 14.6024 32.261C14.6024 24.5895 19.7989 19.1343 27.6942 19.1343C33.9894 19.1343 38.7719 23.6355 38.7719 28.1978H37.2613C37.2613 25.1766 32.7798 21.2354 27.8916 21.2354C21.2895 21.2354 19.17 26.5139 19.17 32.073C19.17 33.7646 19.3705 35.3622 19.7715 36.8658C20.185 38.3568 20.7802 39.6474 21.5571 40.7375C22.3341 41.8527 23.3052 42.7298 24.4706 43.3688C25.636 44.0078 26.958 44.3273 28.4367 44.3273C29.5394 44.3273 30.5419 44.1582 31.4441 43.8199C32.3589 43.4816 33.0042 43.1245 33.3802 42.7486C33.4804 42.097 33.5306 41.4392 33.5306 40.7751C33.5431 40.111 33.5493 39.5472 33.5493 39.0836V37.6175C33.5493 37.0913 33.4742 36.6277 33.3238 36.2267C33.1859 35.8132 32.8915 35.5125 32.4403 35.3246C32.0268 35.1366 31.4629 34.9988 30.7487 34.9111C30.0469 34.8108 29.4956 34.7482 29.0946 34.7231V33.3511H40.786V34.7231Z" fill="#20A8F4"/>
<path d="M35.7507 35.2472H21.2988V33.5081C22.5704 33.4264 23.6219 33.2631 24.4533 33.0182C25.301 32.7732 25.7248 32.4712 25.7248 32.1119C25.7248 31.9649 25.7085 31.7853 25.6759 31.573C25.6433 31.3607 25.5944 31.173 25.5292 31.0097L22.6437 23.2205H10.4905C10.034 24.3636 9.65905 25.3597 9.36561 26.2088C9.08847 27.0579 8.83578 27.8417 8.60755 28.5602C8.39563 29.2624 8.24891 29.8339 8.16739 30.2748C8.08588 30.7157 8.04513 31.075 8.04513 31.3526C8.04513 32.0058 8.55865 32.512 9.58568 32.8712C10.6127 33.2305 11.7702 33.4428 13.0581 33.5081V35.2472H0V33.5081C0.423857 33.4754 0.953678 33.3856 1.58946 33.2386C2.22525 33.0753 2.74692 32.8631 3.15447 32.6018C3.80656 32.1609 4.31193 31.7037 4.67058 31.2301C5.02922 30.7402 5.37972 30.0707 5.72207 29.2216C7.4664 24.8616 9.39006 19.9628 11.493 14.5251C13.596 9.08735 15.4708 4.24566 17.1173 0H19.0736L30.64 29.9809C30.8845 30.6178 31.1616 31.1321 31.4714 31.524C31.7811 31.916 32.2131 32.2997 32.7674 32.6753C33.1423 32.9039 33.6314 33.0998 34.2346 33.2631C34.8378 33.4101 35.3431 33.4917 35.7507 33.5081V35.2472ZM21.7634 21.0405L16.506 7.56871L11.3463 21.0405H21.7634Z" fill="#20A8F4"/>
</svg>
