<svg width="139" height="124" viewBox="0 0 139 124" fill="none" xmlns="http://www.w3.org/2000/svg">
<g id="Group 42" opacity="0.3">
<g id="Vector">
<path fill-rule="evenodd" clip-rule="evenodd" d="M129.511 28.2594C147.781 59.904 133.712 104.473 99.6694 117.75C74.2852 127.65 39.994 125.178 21.724 93.533C3.45394 61.8883 13.9941 22.1878 37.9481 7.00281C77.6895 -18.1902 110.252 5.39119 119.873 16.0564L120.216 15.7523C100.187 -7.63391 64.6962 -14.0222 35.2839 2.95903C2.22342 22.0465 -9.10394 64.3208 9.98354 97.3813C29.071 130.442 71.3453 141.769 104.406 122.682C137.466 103.594 148.794 61.3199 129.706 28.2594L129.511 28.2594Z" fill="white"/>
<path fill-rule="evenodd" clip-rule="evenodd" d="M83.5896 33.9879C83.5896 33.9879 90.5462 31.0274 92.3224 28.2153C94.0985 25.4032 84.1817 12.5261 84.1817 12.5261L82.9976 10.7499C82.9211 10.6695 83.5897 8.88206 82.8685 8.11336C81.2237 6.36001 74.5419 6.28207 73.2287 7.78967C71.9156 9.29727 72.8587 10.1579 72.8587 10.1579L70.7125 10.7499C70.7125 10.7499 65.5321 5.8655 60.3517 8.82576C55.1712 11.786 57.0953 16.0782 57.0953 16.0782L24.0885 29.1033C23.4966 32.6558 23.7928 33.3959 25.5687 33.8398C29.4103 34.7999 27.9369 30.8795 26.6048 29.3994L57.5394 17.4103C57.5394 17.4103 58.7236 21.5549 65.0881 24.5151C62.2758 26.5873 60.3517 30.7316 61.3878 36.2081C62.4238 41.6846 76.6331 57.966 76.6331 57.966C72.869 69.5269 72.483 79.4371 67.9003 90.8246L55.1713 113.027C52.655 118.503 51.4709 129.604 57.5394 128.42C63.2083 127.314 58.8974 118.364 62.1278 115.099C67.2375 109.934 72.4921 100.738 77.0771 95.1171L83.1456 79.1318V102.814L80.9254 120.723C80.9254 120.723 80.3334 125.46 79.7414 127.236C79.1494 129.012 85.8098 130.583 91.8784 128.42C92.6184 124.868 89.7968 126.222 90.2502 124.424C92.703 114.696 93.0142 91.0343 93.752 84.7184C95.0521 73.5875 96.3028 63.1498 92.1426 52.608C89.634 46.2513 87.1095 39.8543 83.5896 33.9879ZM77.2252 14.5983C78.4092 14.4799 79.396 18.3973 79.7414 20.3708C75.3248 20.3708 69.4565 22.9843 70.2686 22.4429C73.3768 20.3708 72.4887 15.9269 72.4887 15.0423C72.4887 14.7473 73.926 14.7136 75.3248 14.6808C76.0315 14.6643 76.7284 14.6479 77.2252 14.5983Z" fill="white"/>
</g>
</g>
</svg>
