<svg width="100" height="60" viewBox="0 0 100 60" fill="none" xmlns="http://www.w3.org/2000/svg">
<path d="M44.6402 14.2561H47.0162C47.0162 7.08003 39.4938 0 29.5921 0C17.1735 0 9 9.79992 9 21.8664C9 33.3143 17.5589 42.3857 29.5601 42.3857C33.3744 42.3857 36.0599 41.7948 39.0144 40.0221V42.3857H44.9234V27.0224C44.9234 25.5313 46.1051 24.6589 47.2869 24.6589H52.0141V22.2953H31.9237V24.6589H36.6508C38.0804 24.8344 39.0144 25.8406 39.0144 27.0224V35.8858C36.5131 38.387 34.4045 39.6262 30.7599 39.6262C20.4893 39.6262 15.7065 30.7023 15.7065 21.8664C15.7065 13.1224 19.5181 3.30482 29.9025 3.30482C37.5912 3.30482 44.6402 9.50404 44.6402 14.2561Z" fill="#20A8F4"/>
<path fill-rule="evenodd" clip-rule="evenodd" d="M89 42.3855H72.4555V40.2389C74.9245 40.0803 76.2386 40.0219 75.0914 37.6698L70.3309 24.6587H59.1039L54.5734 36.8014C54.5734 36.8014 53.195 40.0219 56.1495 40.0219H60.3531V42.3855H40.1953V40.0219C40.6962 39.9834 47.286 40.0219 47.286 40.0219C50.2405 40.0219 50.7109 37.9692 51.6835 35.5567C53.0284 32.1951 54.4635 28.5624 55.9889 24.6587H47.286V22.2951H56.9105C57.4315 20.9564 57.9625 19.5876 58.5036 18.1885C60.9889 11.7623 63.2044 6.04042 65.1503 1.02295H67.4622L81.1312 36.454C81.6501 37.8054 82.161 40.2389 84.5997 40.2389H89V42.3855ZM64.4278 9.96756L69.74 22.2951H59.6948L64.4278 9.96756Z" fill="#20A8F4"/>
<path d="M7.52344 52.541V55.9219C7.39062 56.082 7.18555 56.2559 6.9082 56.4434C6.63086 56.627 6.27344 56.7852 5.83594 56.918C5.39844 57.0508 4.86914 57.1172 4.24805 57.1172C3.69727 57.1172 3.19531 57.0273 2.74219 56.8477C2.28906 56.6641 1.89844 56.3965 1.57031 56.0449C1.24609 55.6934 0.996094 55.2637 0.820312 54.7559C0.644531 54.2441 0.556641 53.6602 0.556641 53.0039V52.4707C0.556641 51.8145 0.640625 51.2305 0.808594 50.7188C0.980469 50.207 1.22461 49.7754 1.54102 49.4238C1.85742 49.0723 2.23438 48.8047 2.67188 48.6211C3.10938 48.4375 3.5957 48.3457 4.13086 48.3457C4.87305 48.3457 5.48242 48.4668 5.95898 48.709C6.43555 48.9473 6.79883 49.2793 7.04883 49.7051C7.30273 50.127 7.45898 50.6113 7.51758 51.1582H5.8125C5.76953 50.8691 5.6875 50.6172 5.56641 50.4023C5.44531 50.1875 5.27148 50.0195 5.04492 49.8984C4.82227 49.7773 4.5332 49.7168 4.17773 49.7168C3.88477 49.7168 3.62305 49.7773 3.39258 49.8984C3.16602 50.0156 2.97461 50.1895 2.81836 50.4199C2.66211 50.6504 2.54297 50.9355 2.46094 51.2754C2.37891 51.6152 2.33789 52.0098 2.33789 52.459V53.0039C2.33789 53.4492 2.38086 53.8438 2.4668 54.1875C2.55273 54.5273 2.67969 54.8145 2.84766 55.0488C3.01953 55.2793 3.23047 55.4531 3.48047 55.5703C3.73047 55.6875 4.02148 55.7461 4.35352 55.7461C4.63086 55.7461 4.86133 55.7227 5.04492 55.6758C5.23242 55.6289 5.38281 55.5723 5.49609 55.5059C5.61328 55.4355 5.70312 55.3691 5.76562 55.3066V53.7949H4.16016V52.541H7.52344Z" fill="black"/>
<path d="M8.56641 53.8945V53.7715C8.56641 53.3066 8.63281 52.8789 8.76562 52.4883C8.89844 52.0938 9.0918 51.752 9.3457 51.4629C9.59961 51.1738 9.91211 50.9492 10.2832 50.7891C10.6543 50.625 11.0801 50.543 11.5605 50.543C12.041 50.543 12.4688 50.625 12.8438 50.7891C13.2188 50.9492 13.5332 51.1738 13.7871 51.4629C14.0449 51.752 14.2402 52.0938 14.373 52.4883C14.5059 52.8789 14.5723 53.3066 14.5723 53.7715V53.8945C14.5723 54.3555 14.5059 54.7832 14.373 55.1777C14.2402 55.5684 14.0449 55.9102 13.7871 56.2031C13.5332 56.4922 13.2207 56.7168 12.8496 56.877C12.4785 57.0371 12.0527 57.1172 11.5723 57.1172C11.0918 57.1172 10.6641 57.0371 10.2891 56.877C9.91797 56.7168 9.60352 56.4922 9.3457 56.2031C9.0918 55.9102 8.89844 55.5684 8.76562 55.1777C8.63281 54.7832 8.56641 54.3555 8.56641 53.8945ZM10.2539 53.7715V53.8945C10.2539 54.1602 10.2773 54.4082 10.3242 54.6387C10.3711 54.8691 10.4453 55.0723 10.5469 55.248C10.6523 55.4199 10.7891 55.5547 10.957 55.6523C11.125 55.75 11.3301 55.7988 11.5723 55.7988C11.8066 55.7988 12.0078 55.75 12.1758 55.6523C12.3438 55.5547 12.4785 55.4199 12.5801 55.248C12.6816 55.0723 12.7559 54.8691 12.8027 54.6387C12.8535 54.4082 12.8789 54.1602 12.8789 53.8945V53.7715C12.8789 53.5137 12.8535 53.2715 12.8027 53.0449C12.7559 52.8145 12.6797 52.6113 12.5742 52.4355C12.4727 52.2559 12.3379 52.1152 12.1699 52.0137C12.002 51.9121 11.7988 51.8613 11.5605 51.8613C11.3223 51.8613 11.1191 51.9121 10.9512 52.0137C10.7871 52.1152 10.6523 52.2559 10.5469 52.4355C10.4453 52.6113 10.3711 52.8145 10.3242 53.0449C10.2773 53.2715 10.2539 53.5137 10.2539 53.7715Z" fill="black"/>
<path d="M17.2706 48V57H15.5773V48H17.2706Z" fill="black"/>
<path d="M22.0106 50.6602V51.8555H18.3192V50.6602H22.0106ZM19.2333 49.0957H20.9208V55.0898C20.9208 55.2734 20.9442 55.4141 20.9911 55.5117C21.0419 55.6094 21.1161 55.6777 21.2138 55.7168C21.3114 55.752 21.4345 55.7695 21.5829 55.7695C21.6884 55.7695 21.7821 55.7656 21.8641 55.7578C21.9501 55.7461 22.0223 55.7344 22.0809 55.7227L22.0868 56.9648C21.9423 57.0117 21.786 57.0488 21.618 57.0762C21.4501 57.1035 21.2645 57.1172 21.0614 57.1172C20.6903 57.1172 20.3661 57.0566 20.0888 56.9355C19.8153 56.8105 19.6044 56.6113 19.4559 56.3379C19.3075 56.0645 19.2333 55.7051 19.2333 55.2598V49.0957Z" fill="black"/>
<path d="M22.822 53.8945V53.7715C22.822 53.3066 22.8884 52.8789 23.0212 52.4883C23.1541 52.0938 23.3474 51.752 23.6013 51.4629C23.8552 51.1738 24.1677 50.9492 24.5388 50.7891C24.9099 50.625 25.3357 50.543 25.8162 50.543C26.2966 50.543 26.7244 50.625 27.0994 50.7891C27.4744 50.9492 27.7888 51.1738 28.0427 51.4629C28.3005 51.752 28.4959 52.0938 28.6287 52.4883C28.7615 52.8789 28.8279 53.3066 28.8279 53.7715V53.8945C28.8279 54.3555 28.7615 54.7832 28.6287 55.1777C28.4959 55.5684 28.3005 55.9102 28.0427 56.2031C27.7888 56.4922 27.4763 56.7168 27.1052 56.877C26.7341 57.0371 26.3084 57.1172 25.8279 57.1172C25.3474 57.1172 24.9197 57.0371 24.5447 56.877C24.1736 56.7168 23.8591 56.4922 23.6013 56.2031C23.3474 55.9102 23.1541 55.5684 23.0212 55.1777C22.8884 54.7832 22.822 54.3555 22.822 53.8945ZM24.5095 53.7715V53.8945C24.5095 54.1602 24.533 54.4082 24.5798 54.6387C24.6267 54.8691 24.7009 55.0723 24.8025 55.248C24.908 55.4199 25.0447 55.5547 25.2127 55.6523C25.3806 55.75 25.5857 55.7988 25.8279 55.7988C26.0623 55.7988 26.2634 55.75 26.4314 55.6523C26.5994 55.5547 26.7341 55.4199 26.8357 55.248C26.9373 55.0723 27.0115 54.8691 27.0584 54.6387C27.1091 54.4082 27.1345 54.1602 27.1345 53.8945V53.7715C27.1345 53.5137 27.1091 53.2715 27.0584 53.0449C27.0115 52.8145 26.9353 52.6113 26.8298 52.4355C26.7283 52.2559 26.5935 52.1152 26.4255 52.0137C26.2576 51.9121 26.0545 51.8613 25.8162 51.8613C25.5779 51.8613 25.3748 51.9121 25.2068 52.0137C25.0427 52.1152 24.908 52.2559 24.8025 52.4355C24.7009 52.6113 24.6267 52.8145 24.5798 53.0449C24.533 53.2715 24.5095 53.5137 24.5095 53.7715Z" fill="black"/>
<path d="M31.4325 51.9727V57H29.7391V50.6602H31.327L31.4325 51.9727ZM31.1981 53.6074H30.7294C30.7294 53.166 30.7821 52.7598 30.8876 52.3887C30.997 52.0137 31.1552 51.6895 31.3622 51.416C31.5731 51.1387 31.8329 50.9238 32.1415 50.7715C32.4501 50.6191 32.8075 50.543 33.2138 50.543C33.495 50.543 33.7528 50.5859 33.9872 50.6719C34.2216 50.7539 34.4227 50.8848 34.5907 51.0645C34.7626 51.2402 34.8954 51.4707 34.9891 51.7559C35.0829 52.0371 35.1298 52.375 35.1298 52.7695V57H33.4423V52.957C33.4423 52.668 33.4032 52.4453 33.3251 52.2891C33.247 52.1328 33.1356 52.0234 32.9911 51.9609C32.8505 51.8984 32.6805 51.8672 32.4813 51.8672C32.2626 51.8672 32.0712 51.9121 31.9071 52.002C31.747 52.0918 31.6141 52.2168 31.5087 52.377C31.4032 52.5332 31.3251 52.7168 31.2743 52.9277C31.2235 53.1387 31.1981 53.3652 31.1981 53.6074ZM34.9716 53.4141L34.368 53.4902C34.368 53.0762 34.4188 52.6914 34.5204 52.3359C34.6259 51.9805 34.7802 51.668 34.9833 51.3984C35.1903 51.1289 35.4462 50.9199 35.7509 50.7715C36.0555 50.6191 36.4071 50.543 36.8055 50.543C37.1102 50.543 37.3876 50.5879 37.6376 50.6777C37.8876 50.7637 38.1005 50.9023 38.2763 51.0938C38.4559 51.2812 38.5927 51.5273 38.6864 51.832C38.7841 52.1367 38.8329 52.5098 38.8329 52.9512V57H37.1395V52.9512C37.1395 52.6582 37.1005 52.4355 37.0223 52.2832C36.9481 52.127 36.8388 52.0195 36.6942 51.9609C36.5536 51.8984 36.3856 51.8672 36.1903 51.8672C35.9872 51.8672 35.8095 51.9082 35.6571 51.9902C35.5048 52.0684 35.3778 52.1777 35.2763 52.3184C35.1747 52.459 35.0985 52.623 35.0477 52.8105C34.997 52.9941 34.9716 53.1953 34.9716 53.4141Z" fill="black"/>
<path d="M39.75 53.8945V53.7715C39.75 53.3066 39.8164 52.8789 39.9492 52.4883C40.082 52.0938 40.2754 51.752 40.5293 51.4629C40.7832 51.1738 41.0957 50.9492 41.4668 50.7891C41.8379 50.625 42.2637 50.543 42.7441 50.543C43.2246 50.543 43.6523 50.625 44.0273 50.7891C44.4023 50.9492 44.7168 51.1738 44.9707 51.4629C45.2285 51.752 45.4238 52.0938 45.5566 52.4883C45.6895 52.8789 45.7559 53.3066 45.7559 53.7715V53.8945C45.7559 54.3555 45.6895 54.7832 45.5566 55.1777C45.4238 55.5684 45.2285 55.9102 44.9707 56.2031C44.7168 56.4922 44.4043 56.7168 44.0332 56.877C43.6621 57.0371 43.2363 57.1172 42.7559 57.1172C42.2754 57.1172 41.8477 57.0371 41.4727 56.877C41.1016 56.7168 40.7871 56.4922 40.5293 56.2031C40.2754 55.9102 40.082 55.5684 39.9492 55.1777C39.8164 54.7832 39.75 54.3555 39.75 53.8945ZM41.4375 53.7715V53.8945C41.4375 54.1602 41.4609 54.4082 41.5078 54.6387C41.5547 54.8691 41.6289 55.0723 41.7305 55.248C41.8359 55.4199 41.9727 55.5547 42.1406 55.6523C42.3086 55.75 42.5137 55.7988 42.7559 55.7988C42.9902 55.7988 43.1914 55.75 43.3594 55.6523C43.5273 55.5547 43.6621 55.4199 43.7637 55.248C43.8652 55.0723 43.9395 54.8691 43.9863 54.6387C44.0371 54.4082 44.0625 54.1602 44.0625 53.8945V53.7715C44.0625 53.5137 44.0371 53.2715 43.9863 53.0449C43.9395 52.8145 43.8633 52.6113 43.7578 52.4355C43.6562 52.2559 43.5215 52.1152 43.3535 52.0137C43.1855 51.9121 42.9824 51.8613 42.7441 51.8613C42.5059 51.8613 42.3027 51.9121 42.1348 52.0137C41.9707 52.1152 41.8359 52.2559 41.7305 52.4355C41.6289 52.6113 41.5547 52.8145 41.5078 53.0449C41.4609 53.2715 41.4375 53.5137 41.4375 53.7715Z" fill="black"/>
<path d="M53.3555 49.9277L51.0352 57H49.166L52.3359 48.4688H53.5254L53.3555 49.9277ZM55.2832 57L52.957 49.9277L52.7695 48.4688H53.9707L57.1582 57H55.2832ZM55.1777 53.8242V55.2012H50.6719V53.8242H55.1777Z" fill="black"/>
<path d="M60.3429 55.7988C60.5499 55.7988 60.7335 55.7598 60.8937 55.6816C61.0538 55.5996 61.1788 55.4863 61.2687 55.3418C61.3624 55.1934 61.4113 55.0195 61.4152 54.8203H63.003C62.9991 55.2656 62.88 55.6621 62.6456 56.0098C62.4113 56.3535 62.0968 56.625 61.7023 56.8242C61.3077 57.0195 60.8663 57.1172 60.378 57.1172C59.8859 57.1172 59.4562 57.0352 59.089 56.8711C58.7257 56.707 58.423 56.4805 58.1808 56.1914C57.9386 55.8984 57.757 55.5586 57.6359 55.1719C57.5148 54.7812 57.4542 54.3633 57.4542 53.918V53.748C57.4542 53.2988 57.5148 52.8809 57.6359 52.4941C57.757 52.1035 57.9386 51.7637 58.1808 51.4746C58.423 51.1816 58.7257 50.9531 59.089 50.7891C59.4523 50.625 59.878 50.543 60.3663 50.543C60.8859 50.543 61.3409 50.6426 61.7316 50.8418C62.1261 51.041 62.4347 51.3262 62.6573 51.6973C62.8839 52.0645 62.9991 52.5 63.003 53.0039H61.4152C61.4113 52.793 61.3663 52.6016 61.2804 52.4297C61.1984 52.2578 61.0773 52.1211 60.9171 52.0195C60.7609 51.9141 60.5675 51.8613 60.337 51.8613C60.0909 51.8613 59.8898 51.9141 59.7335 52.0195C59.5773 52.1211 59.4562 52.2617 59.3702 52.4414C59.2843 52.6172 59.2238 52.8184 59.1886 53.0449C59.1573 53.2676 59.1417 53.502 59.1417 53.748V53.918C59.1417 54.1641 59.1573 54.4004 59.1886 54.627C59.2198 54.8535 59.2784 55.0547 59.3644 55.2305C59.4542 55.4062 59.5773 55.5449 59.7335 55.6465C59.8898 55.748 60.0929 55.7988 60.3429 55.7988Z" fill="black"/>
<path d="M67.5234 55.5703V52.7461C67.5234 52.543 67.4902 52.3691 67.4238 52.2246C67.3574 52.0762 67.2539 51.9609 67.1133 51.8789C66.9766 51.7969 66.7988 51.7559 66.5801 51.7559C66.3926 51.7559 66.2305 51.7891 66.0938 51.8555C65.957 51.918 65.8516 52.0098 65.7773 52.1309C65.7031 52.248 65.666 52.3867 65.666 52.5469H63.9785C63.9785 52.2773 64.041 52.0215 64.166 51.7793C64.291 51.5371 64.4727 51.3242 64.7109 51.1406C64.9492 50.9531 65.2324 50.8066 65.5605 50.7012C65.8926 50.5957 66.2637 50.543 66.6738 50.543C67.166 50.543 67.6035 50.625 67.9863 50.7891C68.3691 50.9531 68.6699 51.1992 68.8887 51.5273C69.1113 51.8555 69.2227 52.2656 69.2227 52.7578V55.4707C69.2227 55.8184 69.2441 56.1035 69.2871 56.3262C69.3301 56.5449 69.3926 56.7363 69.4746 56.9004V57H67.7695C67.6875 56.8281 67.625 56.6133 67.582 56.3555C67.543 56.0938 67.5234 55.832 67.5234 55.5703ZM67.7461 53.1387L67.7578 54.0938H66.8145C66.5918 54.0938 66.3984 54.1191 66.2344 54.1699C66.0703 54.2207 65.9355 54.293 65.8301 54.3867C65.7246 54.4766 65.6465 54.582 65.5957 54.7031C65.5488 54.8242 65.5254 54.957 65.5254 55.1016C65.5254 55.2461 65.5586 55.377 65.625 55.4941C65.6914 55.6074 65.7871 55.6973 65.9121 55.7637C66.0371 55.8262 66.1836 55.8574 66.3516 55.8574C66.6055 55.8574 66.8262 55.8066 67.0137 55.7051C67.2012 55.6035 67.3457 55.4785 67.4473 55.3301C67.5527 55.1816 67.6074 55.041 67.6113 54.9082L68.0566 55.623C67.9941 55.7832 67.9082 55.9492 67.7988 56.1211C67.6934 56.293 67.5586 56.4551 67.3945 56.6074C67.2305 56.7559 67.0332 56.8789 66.8027 56.9766C66.5723 57.0703 66.2988 57.1172 65.9824 57.1172C65.5801 57.1172 65.2148 57.0371 64.8867 56.877C64.5625 56.7129 64.3047 56.4883 64.1133 56.2031C63.9258 55.9141 63.832 55.5859 63.832 55.2188C63.832 54.8867 63.8945 54.5918 64.0195 54.334C64.1445 54.0762 64.3281 53.8594 64.5703 53.6836C64.8164 53.5039 65.123 53.3691 65.4902 53.2793C65.8574 53.1855 66.2832 53.1387 66.7676 53.1387H67.7461Z" fill="black"/>
<path d="M74.1476 55.6172V48H75.8468V57H74.3175L74.1476 55.6172ZM70.1398 53.9062V53.7832C70.1398 53.2988 70.1945 52.8594 70.3038 52.4648C70.4132 52.0664 70.5734 51.7246 70.7843 51.4395C70.9952 51.1543 71.255 50.9336 71.5636 50.7773C71.8722 50.6211 72.2237 50.543 72.6183 50.543C72.9894 50.543 73.3136 50.6211 73.5909 50.7773C73.8722 50.9336 74.1105 51.1562 74.3058 51.4453C74.505 51.7305 74.6652 52.0684 74.7862 52.459C74.9073 52.8457 74.9952 53.2695 75.0499 53.7305V54C74.9952 54.4414 74.9073 54.8516 74.7862 55.2305C74.6652 55.6094 74.505 55.9414 74.3058 56.2266C74.1105 56.5078 73.8722 56.7266 73.5909 56.8828C73.3097 57.0391 72.9816 57.1172 72.6066 57.1172C72.212 57.1172 71.8605 57.0371 71.5519 56.877C71.2472 56.7168 70.9894 56.4922 70.7784 56.2031C70.5714 55.9141 70.4132 55.5742 70.3038 55.1836C70.1945 54.793 70.1398 54.3672 70.1398 53.9062ZM71.8273 53.7832V53.9062C71.8273 54.168 71.8468 54.4121 71.8859 54.6387C71.9288 54.8652 71.9972 55.0664 72.0909 55.2422C72.1886 55.4141 72.3136 55.5488 72.4659 55.6465C72.6222 55.7402 72.8116 55.7871 73.0343 55.7871C73.3234 55.7871 73.5616 55.7227 73.7491 55.5938C73.9366 55.4609 74.0792 55.2793 74.1769 55.0488C74.2784 54.8184 74.337 54.5527 74.3527 54.252V53.4844C74.3409 53.2383 74.3058 53.0176 74.2472 52.8223C74.1925 52.623 74.1105 52.4531 74.0011 52.3125C73.8956 52.1719 73.7628 52.0625 73.6027 51.9844C73.4464 51.9062 73.2609 51.8672 73.046 51.8672C72.8273 51.8672 72.6398 51.918 72.4835 52.0195C72.3273 52.1172 72.2003 52.252 72.1027 52.4238C72.0089 52.5957 71.9386 52.7988 71.8917 53.0332C71.8487 53.2637 71.8273 53.5137 71.8273 53.7832Z" fill="black"/>
<path d="M79.9631 57.1172C79.4709 57.1172 79.0295 57.0391 78.6389 56.8828C78.2483 56.7227 77.9163 56.502 77.6428 56.2207C77.3733 55.9395 77.1663 55.6133 77.0217 55.2422C76.8772 54.8672 76.8049 54.4688 76.8049 54.0469V53.8125C76.8049 53.332 76.8733 52.8926 77.01 52.4941C77.1467 52.0957 77.342 51.75 77.5959 51.457C77.8538 51.1641 78.1663 50.9395 78.5334 50.7832C78.9006 50.623 79.3147 50.543 79.7756 50.543C80.2248 50.543 80.6233 50.6172 80.9709 50.7656C81.3186 50.9141 81.6096 51.125 81.844 51.3984C82.0823 51.6719 82.262 52 82.383 52.3828C82.5041 52.7617 82.5647 53.1836 82.5647 53.6484V54.3516H77.5256V53.2266H80.9065V53.0977C80.9065 52.8633 80.8635 52.6543 80.7776 52.4707C80.6955 52.2832 80.5705 52.1348 80.4026 52.0254C80.2346 51.916 80.0198 51.8613 79.758 51.8613C79.5354 51.8613 79.344 51.9102 79.1838 52.0078C79.0237 52.1055 78.8928 52.2422 78.7913 52.418C78.6936 52.5938 78.6194 52.8008 78.5686 53.0391C78.5217 53.2734 78.4983 53.5312 78.4983 53.8125V54.0469C78.4983 54.3008 78.5334 54.5352 78.6038 54.75C78.678 54.9648 78.7815 55.1504 78.9143 55.3066C79.051 55.4629 79.2151 55.584 79.4065 55.6699C79.6018 55.7559 79.8225 55.7988 80.0686 55.7988C80.3733 55.7988 80.6565 55.7402 80.9182 55.623C81.1838 55.502 81.4123 55.3203 81.6038 55.0781L82.4241 55.9688C82.2913 56.1602 82.1096 56.3438 81.8791 56.5195C81.6526 56.6953 81.3791 56.8398 81.0588 56.9531C80.7385 57.0625 80.3733 57.1172 79.9631 57.1172Z" fill="black"/>
<path d="M85.0931 51.9727V57H83.3998V50.6602H84.9877L85.0931 51.9727ZM84.8587 53.6074H84.39C84.39 53.166 84.4427 52.7598 84.5482 52.3887C84.6576 52.0137 84.8158 51.6895 85.0228 51.416C85.2337 51.1387 85.4935 50.9238 85.8021 50.7715C86.1107 50.6191 86.4681 50.543 86.8744 50.543C87.1556 50.543 87.4134 50.5859 87.6478 50.6719C87.8822 50.7539 88.0834 50.8848 88.2513 51.0645C88.4232 51.2402 88.556 51.4707 88.6498 51.7559C88.7435 52.0371 88.7904 52.375 88.7904 52.7695V57H87.1029V52.957C87.1029 52.668 87.0638 52.4453 86.9857 52.2891C86.9076 52.1328 86.7962 52.0234 86.6517 51.9609C86.5111 51.8984 86.3412 51.8672 86.142 51.8672C85.9232 51.8672 85.7318 51.9121 85.5677 52.002C85.4076 52.0918 85.2748 52.2168 85.1693 52.377C85.0638 52.5332 84.9857 52.7168 84.9349 52.9277C84.8841 53.1387 84.8587 53.3652 84.8587 53.6074ZM88.6322 53.4141L88.0287 53.4902C88.0287 53.0762 88.0795 52.6914 88.181 52.3359C88.2865 51.9805 88.4408 51.668 88.6439 51.3984C88.8509 51.1289 89.1068 50.9199 89.4115 50.7715C89.7162 50.6191 90.0677 50.543 90.4662 50.543C90.7709 50.543 91.0482 50.5879 91.2982 50.6777C91.5482 50.7637 91.7611 50.9023 91.9369 51.0938C92.1166 51.2812 92.2533 51.5273 92.347 51.832C92.4447 52.1367 92.4935 52.5098 92.4935 52.9512V57H90.8002V52.9512C90.8002 52.6582 90.7611 52.4355 90.683 52.2832C90.6087 52.127 90.4994 52.0195 90.3548 51.9609C90.2142 51.8984 90.0462 51.8672 89.8509 51.8672C89.6478 51.8672 89.4701 51.9082 89.3177 51.9902C89.1654 52.0684 89.0384 52.1777 88.9369 52.3184C88.8353 52.459 88.7591 52.623 88.7084 52.8105C88.6576 52.9941 88.6322 53.1953 88.6322 53.4141Z" fill="black"/>
<path d="M95.561 56.2852L97.2427 50.6602H99.0532L96.5044 57.9551C96.4497 58.1152 96.3755 58.2871 96.2817 58.4707C96.1919 58.6543 96.0688 58.8281 95.9126 58.9922C95.7602 59.1602 95.5669 59.2969 95.3325 59.4023C95.102 59.5078 94.8188 59.5605 94.4829 59.5605C94.3227 59.5605 94.1919 59.5508 94.0903 59.5312C93.9887 59.5117 93.8677 59.4844 93.727 59.4492V58.2129C93.77 58.2129 93.8149 58.2129 93.8618 58.2129C93.9087 58.2168 93.9536 58.2188 93.9966 58.2188C94.2192 58.2188 94.4009 58.1934 94.5415 58.1426C94.6821 58.0918 94.7954 58.0137 94.8813 57.9082C94.9673 57.8066 95.0356 57.6738 95.0864 57.5098L95.561 56.2852ZM94.8579 50.6602L96.2348 55.2539L96.4751 57.041L95.3266 57.1641L93.0473 50.6602H94.8579Z" fill="black"/>
</svg>
